<svg xmlns="http://www.w3.org/2000/svg" width="130.457" height="39.983" viewBox="0 0 130.457 39.983"><defs><style>.a{fill:#e8e3e6;}</style></defs><path class="a" d="M8.908,64.9a6.726,6.726,0,0,1-2.464-2.092A9.947,9.947,0,0,1,5,59.8a12.591,12.591,0,0,1-.5-3.6,11.676,11.676,0,0,1,.546-3.628A9.208,9.208,0,0,1,6.6,49.63a6.961,6.961,0,0,1,2.563-1.982,8.121,8.121,0,0,1,3.445-.718,7.173,7.173,0,0,1,3.572.873,5.748,5.748,0,0,1,2.373,2.527V40.894a1.378,1.378,0,0,1,.49-1.118,1.757,1.757,0,0,1,1.163-.409,1.735,1.735,0,0,1,1.145.409,1.378,1.378,0,0,1,.49,1.118V63.767a1.4,1.4,0,0,1-.49,1.137,1.738,1.738,0,0,1-1.145.409A1.707,1.707,0,0,1,18.97,64.9a1.491,1.491,0,0,1-.418-1.118V62.167a5.917,5.917,0,0,1-2.5,2.628,7.715,7.715,0,0,1-3.737.882A7.432,7.432,0,0,1,8.908,64.9m9.626-8.682a10.572,10.572,0,0,0-.308-2.6,8.008,8.008,0,0,0-.937-2.237,4.582,4.582,0,0,0-1.708-1.619,5.117,5.117,0,0,0-2.518-.6,4.74,4.74,0,0,0-2.482.636,4.435,4.435,0,0,0-1.646,1.7,8.91,8.91,0,0,0-.864,2.263,10.922,10.922,0,0,0-.282,2.51,11.48,11.48,0,0,0,.255,2.446,9.646,9.646,0,0,0,.8,2.264,4.34,4.34,0,0,0,1.591,1.754,4.621,4.621,0,0,0,2.464.682q5.638,0,5.636-7.2" transform="translate(-4.5 -25.761)"/><path class="a" d="M51.93,72.919a4.592,4.592,0,0,1-1.782-3.873,6.794,6.794,0,0,1,.218-1.818,4.644,4.644,0,0,1,.619-1.373,3.236,3.236,0,0,1,1.127-1,7.958,7.958,0,0,1,1.6-.673,12.26,12.26,0,0,1,2.217-.4q1.346-.135,2.774-.19t3.445-.055V61.553a3.667,3.667,0,0,0-1.036-2.872,4.185,4.185,0,0,0-2.892-.928A10.628,10.628,0,0,0,56,57.99a13.307,13.307,0,0,0-1.746.472q-.637.237-1.564.655a.972.972,0,0,1-.437.09,1.055,1.055,0,0,1-.818-.391,1.279,1.279,0,0,1-.346-.863.914.914,0,0,1,.51-.837,13.494,13.494,0,0,1,6.708-1.582,7.984,7.984,0,0,1,5.209,1.544A5.811,5.811,0,0,1,65.4,61.842v10.6a1.368,1.368,0,0,1-.5,1.118,1.776,1.776,0,0,1-1.155.409,1.677,1.677,0,0,1-1.118-.392,1.359,1.359,0,0,1-.463-1.1V70.734a5.778,5.778,0,0,1-5.6,3.544,7.392,7.392,0,0,1-4.636-1.359m8.644-2.545a6.28,6.28,0,0,0,1.573-4.4v-.546q-2.255,0-3.672.083a19.269,19.269,0,0,0-2.509.29,4.012,4.012,0,0,0-1.636.618,2.556,2.556,0,0,0-.81.991,3.61,3.61,0,0,0-.263,1.492,2.9,2.9,0,0,0,.981,2.427,4.22,4.22,0,0,0,2.674.772,4.814,4.814,0,0,0,3.662-1.727" transform="translate(-28.804 -34.369)"/><path class="a" d="M94.267,65.963a6.035,6.035,0,0,1-1.237-4.173V51.316H90.812a1.309,1.309,0,0,1-.917-.291,1.01,1.01,0,0,1-.318-.782,1.031,1.031,0,0,1,.31-.773,1.258,1.258,0,0,1,.909-.3h2.236l.437-5.164a1.4,1.4,0,0,1,.517-1,1.589,1.589,0,0,1,1.065-.419,1.292,1.292,0,0,1,.909.336,1.259,1.259,0,0,1,.364.974V49.17h3.345a1.207,1.207,0,0,1,.9.309,1.1,1.1,0,0,1,.3.8q0,1.037-1.2,1.036H96.324v9.909a5.2,5.2,0,0,0,.527,2.7,1.838,1.838,0,0,0,1.673.826h.2l1.237-.055h.109a1.212,1.212,0,0,1,.946.383,1.288,1.288,0,0,1,.345.891,1.252,1.252,0,0,1-.2.736,1.128,1.128,0,0,1-.61.409,3.993,3.993,0,0,1-.818.164q-.408.036-1.063.037H97.6a4.28,4.28,0,0,1-3.332-1.352" transform="translate(-49.795 -27.475)"/><path class="a" d="M121.455,72.919a4.592,4.592,0,0,1-1.782-3.873,6.774,6.774,0,0,1,.219-1.818,4.667,4.667,0,0,1,.618-1.373,3.24,3.24,0,0,1,1.127-1,7.969,7.969,0,0,1,1.6-.673,12.276,12.276,0,0,1,2.217-.4q1.346-.135,2.774-.19t3.445-.055V61.553a3.667,3.667,0,0,0-1.036-2.872,4.187,4.187,0,0,0-2.892-.928,10.624,10.624,0,0,0-2.217.237,13.339,13.339,0,0,0-1.747.472q-.636.237-1.564.655a.971.971,0,0,1-.437.09,1.056,1.056,0,0,1-.818-.391,1.279,1.279,0,0,1-.346-.863.915.915,0,0,1,.51-.837,13.492,13.492,0,0,1,6.708-1.582,7.984,7.984,0,0,1,5.209,1.544,5.811,5.811,0,0,1,1.883,4.764v10.6a1.369,1.369,0,0,1-.5,1.118,1.777,1.777,0,0,1-1.155.409,1.677,1.677,0,0,1-1.118-.392,1.361,1.361,0,0,1-.463-1.1V70.734a5.777,5.777,0,0,1-5.6,3.544,7.4,7.4,0,0,1-4.636-1.359m8.645-2.545a6.28,6.28,0,0,0,1.573-4.4v-.546q-2.255,0-3.672.083a19.269,19.269,0,0,0-2.509.29,4.012,4.012,0,0,0-1.636.618,2.556,2.556,0,0,0-.81.991,3.61,3.61,0,0,0-.263,1.492,2.9,2.9,0,0,0,.981,2.427,4.22,4.22,0,0,0,2.674.772,4.817,4.817,0,0,0,3.662-1.727" transform="translate(-65.819 -34.369)"/><path class="a" d="M162.956,65.167a2.637,2.637,0,0,1-.628-1.883V42.174a2.617,2.617,0,0,1,.635-1.873,2.15,2.15,0,0,1,1.636-.673,2.206,2.206,0,0,1,1.655.673,2.568,2.568,0,0,1,.657,1.873V63.284a2.543,2.543,0,0,1-.666,1.873,2.263,2.263,0,0,1-1.681.673,2.119,2.119,0,0,1-1.608-.664" transform="translate(-88.53 -25.9)"/><path class="a" d="M182.626,42.45a2.407,2.407,0,0,1-.735-1.827,2.38,2.38,0,0,1,.735-1.818,2.713,2.713,0,0,1,1.937-.691,2.662,2.662,0,0,1,1.91.691,2.636,2.636,0,0,1-.011,3.645,2.976,2.976,0,0,1-3.836,0m.282,21.91a2.612,2.612,0,0,1-.636-1.883V49.35a2.641,2.641,0,0,1,.636-1.891,2.154,2.154,0,0,1,1.637-.673,2.188,2.188,0,0,1,1.646.673,2.626,2.626,0,0,1,.645,1.891V62.478a2.6,2.6,0,0,1-.645,1.873,2.349,2.349,0,0,1-3.282.01" transform="translate(-98.945 -25.094)"/><path class="a" d="M202.981,73.945a2.558,2.558,0,0,1-.636-1.846V58.662A2.176,2.176,0,0,1,203,56.971a2.353,2.353,0,0,1,1.655-.6,2.286,2.286,0,0,1,1.619.591,2.165,2.165,0,0,1,.635,1.664v.636a5.376,5.376,0,0,1,2.337-2.346,7.841,7.841,0,0,1,3.664-.8,7.051,7.051,0,0,1,2.464.427,6.266,6.266,0,0,1,2.063,1.255,5.634,5.634,0,0,1,1.435,2.191,8.582,8.582,0,0,1,.527,3.11v9a2.509,2.509,0,0,1-.654,1.846,2.247,2.247,0,0,1-1.672.663,2.127,2.127,0,0,1-1.6-.663,2.568,2.568,0,0,1-.634-1.846V63.08a3.926,3.926,0,0,0-.974-2.863,3.323,3.323,0,0,0-2.481-.992,4.149,4.149,0,0,0-3.147,1.436,5.307,5.307,0,0,0-1.328,3.745V72.1a2.532,2.532,0,0,1-.645,1.846,2.195,2.195,0,0,1-1.646.664,2.154,2.154,0,0,1-1.633-.661" transform="translate(-109.835 -34.678)"/><path class="a" d="M249.474,65.136a2.666,2.666,0,0,1-.628-1.891V42.153a2.639,2.639,0,0,1,.636-1.891,2.154,2.154,0,0,1,1.637-.673,2.18,2.18,0,0,1,1.645.673,2.618,2.618,0,0,1,.645,1.891V55.463l7.528-7.492a1.761,1.761,0,0,1,1.328-.636,1.818,1.818,0,0,1,1.363.645,2.094,2.094,0,0,1,.6,1.464,1.746,1.746,0,0,1-.51,1.255l-5.491,5.272,6.274,6.547a1.869,1.869,0,0,1-.1,2.736,2.1,2.1,0,0,1-1.481.609,2.019,2.019,0,0,1-1.582-.764l-7.927-8.437v6.581a2.6,2.6,0,0,1-.655,1.891,2.235,2.235,0,0,1-1.674.673,2.1,2.1,0,0,1-1.609-.672" transform="translate(-134.593 -25.879)"/><path class="a" d="M197.523,18.779c.068.022.136.047.2.076a2.241,2.241,0,0,1-1.644,4.167L188.6,18.907a2.521,2.521,0,0,1,.193-4.492l6.988-3.881a2.24,2.24,0,0,1,2.642,3.559L196,15.243a1.682,1.682,0,0,0,.029,2.936Z" transform="translate(-101.832 -10.269)"/><path class="a" d="M216.417,24.226c-.068-.022-.136-.047-.2-.076a2.241,2.241,0,0,1,1.644-4.167l7.483,4.115a2.521,2.521,0,0,1-.193,4.492l-6.988,3.881a2.24,2.24,0,0,1-2.642-3.559l2.419-1.149a1.682,1.682,0,0,0-.029-2.936Z" transform="translate(-116.5 -15.371)"/></svg>