<svg xmlns="http://www.w3.org/2000/svg" width="145.459" height="45.275" viewBox="0 0 145.459 45.275"><defs><style>.a{fill:#007aff;stroke:rgba(0,0,0,0);stroke-miterlimit:10;}</style></defs><g transform="translate(0.5 0.5)"><path class="a" d="M-73.484-157.722l-8.778-9.342v7.287a2.877,2.877,0,0,1-.725,2.094,2.476,2.476,0,0,1-1.854.745,2.319,2.319,0,0,1-1.782-.744,2.953,2.953,0,0,1-.7-2.093V-183.13a2.922,2.922,0,0,1,.7-2.094,2.385,2.385,0,0,1,1.813-.745,2.412,2.412,0,0,1,1.822.745,2.9,2.9,0,0,1,.715,2.094v14.738l8.335-8.3a1.95,1.95,0,0,1,1.471-.7,2.014,2.014,0,0,1,1.51.714,2.322,2.322,0,0,1,.667,1.622,1.932,1.932,0,0,1-.565,1.39l-6.08,5.837,6.947,7.249a2.119,2.119,0,0,1,.6,1.449,2.1,2.1,0,0,1-.716,1.58,2.324,2.324,0,0,1-1.641.675A2.235,2.235,0,0,1-73.484-157.722Zm-47.375.052a2.893,2.893,0,0,1-.7-2.085v-14.536a2.926,2.926,0,0,1,.7-2.094,2.385,2.385,0,0,1,1.813-.745,2.425,2.425,0,0,1,1.822.745,2.91,2.91,0,0,1,.714,2.094v14.536a2.881,2.881,0,0,1-.714,2.074,2.425,2.425,0,0,1-1.822.745A2.4,2.4,0,0,1-120.859-157.67Zm-10.561,0a2.921,2.921,0,0,1-.695-2.085V-183.13a2.9,2.9,0,0,1,.7-2.075,2.383,2.383,0,0,1,1.811-.745,2.445,2.445,0,0,1,1.832.745,2.844,2.844,0,0,1,.727,2.075v23.375a2.816,2.816,0,0,1-.737,2.074,2.506,2.506,0,0,1-1.861.745A2.348,2.348,0,0,1-131.42-157.67Zm34.558,0a2.844,2.844,0,0,1-.7-2.044V-169.7a4.345,4.345,0,0,0-1.078-3.171,3.68,3.68,0,0,0-2.748-1.1,4.6,4.6,0,0,0-3.485,1.59,5.876,5.876,0,0,0-1.471,4.147v8.516a2.8,2.8,0,0,1-.715,2.044,2.43,2.43,0,0,1-1.823.734,2.383,2.383,0,0,1-1.808-.732,2.829,2.829,0,0,1-.7-2.044v-14.879a2.412,2.412,0,0,1,.724-1.874,2.606,2.606,0,0,1,1.832-.664,2.53,2.53,0,0,1,1.793.654,2.4,2.4,0,0,1,.7,1.842v.7a5.954,5.954,0,0,1,2.588-2.6,8.682,8.682,0,0,1,4.057-.886,7.8,7.8,0,0,1,2.728.473,6.942,6.942,0,0,1,2.285,1.39,6.236,6.236,0,0,1,1.589,2.425,9.5,9.5,0,0,1,.584,3.444v9.966a2.779,2.779,0,0,1-.724,2.044,2.49,2.49,0,0,1-1.851.734A2.358,2.358,0,0,1-96.862-157.671Zm-112.091-.138a7.446,7.446,0,0,1-2.728-2.317,11.016,11.016,0,0,1-1.6-3.332,13.955,13.955,0,0,1-.553-3.985,12.939,12.939,0,0,1,.6-4.018,10.174,10.174,0,0,1,1.722-3.261,7.7,7.7,0,0,1,2.839-2.194,8.981,8.981,0,0,1,3.814-.8,7.942,7.942,0,0,1,3.955.966,6.368,6.368,0,0,1,2.628,2.8v-10.449a1.526,1.526,0,0,1,.543-1.238,1.947,1.947,0,0,1,1.288-.453,1.921,1.921,0,0,1,1.268.453,1.526,1.526,0,0,1,.544,1.238v25.328a1.553,1.553,0,0,1-.544,1.259,1.925,1.925,0,0,1-1.268.453,1.891,1.891,0,0,1-1.37-.453,1.653,1.653,0,0,1-.462-1.238v-1.793a6.551,6.551,0,0,1-2.768,2.91,8.541,8.541,0,0,1-4.138.977A8.234,8.234,0,0,1-208.953-157.809Zm1.852-16.723a4.915,4.915,0,0,0-1.823,1.884,9.865,9.865,0,0,0-.956,2.506,12.089,12.089,0,0,0-.313,2.779,12.735,12.735,0,0,0,.283,2.708,10.685,10.685,0,0,0,.886,2.507,4.8,4.8,0,0,0,1.761,1.942,5.116,5.116,0,0,0,2.728.755q6.242,0,6.241-7.972a11.692,11.692,0,0,0-.341-2.879,8.884,8.884,0,0,0-1.037-2.477,5.082,5.082,0,0,0-1.892-1.793,5.673,5.673,0,0,0-2.788-.664A5.251,5.251,0,0,0-207.1-174.532Zm54.874,16.069a5.085,5.085,0,0,1-1.974-4.289,7.52,7.52,0,0,1,.242-2.013,5.167,5.167,0,0,1,.685-1.52,3.59,3.59,0,0,1,1.247-1.109,8.844,8.844,0,0,1,1.773-.745,13.533,13.533,0,0,1,2.455-.443q1.49-.148,3.072-.211t3.814-.061v-2.2a4.06,4.06,0,0,0-1.147-3.181,4.631,4.631,0,0,0-3.2-1.028,11.785,11.785,0,0,0-2.455.262,14.969,14.969,0,0,0-1.934.523q-.7.263-1.732.725a1.078,1.078,0,0,1-.484.1,1.171,1.171,0,0,1-.905-.433,1.417,1.417,0,0,1-.383-.956,1.012,1.012,0,0,1,.565-.927,14.942,14.942,0,0,1,7.428-1.751,8.84,8.84,0,0,1,5.768,1.71,6.437,6.437,0,0,1,2.084,5.275v11.74a1.517,1.517,0,0,1-.553,1.238,1.972,1.972,0,0,1-1.279.453,1.855,1.855,0,0,1-1.238-.434,1.5,1.5,0,0,1-.513-1.217v-1.933a6.4,6.4,0,0,1-6.2,3.925h-.028A8.174,8.174,0,0,1-152.227-158.463Zm7.249-8.2a21.206,21.206,0,0,0-2.778.32,4.445,4.445,0,0,0-1.812.685,2.82,2.82,0,0,0-.9,1.1,3.993,3.993,0,0,0-.292,1.652,3.214,3.214,0,0,0,1.086,2.687,4.672,4.672,0,0,0,2.961.855,5.334,5.334,0,0,0,4.055-1.912,6.956,6.956,0,0,0,1.742-4.873v-.6Q-143.408-166.758-144.978-166.666Zm-43.247,8.2a5.085,5.085,0,0,1-1.974-4.289,7.52,7.52,0,0,1,.242-2.013,5.121,5.121,0,0,1,.685-1.52,3.582,3.582,0,0,1,1.247-1.109,8.844,8.844,0,0,1,1.773-.745,13.518,13.518,0,0,1,2.455-.443q1.49-.148,3.071-.211t3.815-.061v-2.2a4.06,4.06,0,0,0-1.147-3.181,4.632,4.632,0,0,0-3.2-1.028,11.776,11.776,0,0,0-2.454.262,14.887,14.887,0,0,0-1.934.523q-.706.263-1.732.725a1.081,1.081,0,0,1-.484.1,1.169,1.169,0,0,1-.905-.433,1.417,1.417,0,0,1-.383-.956,1.013,1.013,0,0,1,.564-.927,14.947,14.947,0,0,1,7.428-1.751,8.841,8.841,0,0,1,5.769,1.71,6.437,6.437,0,0,1,2.084,5.275v11.74a1.517,1.517,0,0,1-.553,1.238,1.972,1.972,0,0,1-1.279.453,1.855,1.855,0,0,1-1.238-.434,1.5,1.5,0,0,1-.513-1.217v-1.933a6.4,6.4,0,0,1-6.2,3.925h-.028A8.171,8.171,0,0,1-188.225-158.463Zm7.247-8.2a21.225,21.225,0,0,0-2.778.32,4.445,4.445,0,0,0-1.812.685,2.828,2.828,0,0,0-.9,1.1,3.993,3.993,0,0,0-.292,1.652,3.214,3.214,0,0,0,1.086,2.687,4.672,4.672,0,0,0,2.961.855,5.33,5.33,0,0,0,4.055-1.912,6.952,6.952,0,0,0,1.742-4.873v-.6Q-179.408-166.758-180.978-166.666Zm16.389,8.132a6.682,6.682,0,0,1-1.37-4.622v-11.6h-2.456a1.449,1.449,0,0,1-1.016-.323,1.115,1.115,0,0,1-.353-.866,1.142,1.142,0,0,1,.343-.856,1.394,1.394,0,0,1,1.007-.333h2.476l.484-5.718a1.555,1.555,0,0,1,.572-1.107,1.758,1.758,0,0,1,1.179-.464,1.432,1.432,0,0,1,1.006.373,1.4,1.4,0,0,1,.4,1.078v5.838h3.7a1.338,1.338,0,0,1,1,.343,1.221,1.221,0,0,1,.332.886q0,1.147-1.328,1.147h-3.7v10.972a5.766,5.766,0,0,0,.584,2.991,2.038,2.038,0,0,0,1.852.914h.222l1.37-.06h.121a1.343,1.343,0,0,1,1.048.424,1.429,1.429,0,0,1,.383.986,1.385,1.385,0,0,1-.221.815,1.249,1.249,0,0,1-.675.453,4.422,4.422,0,0,1-.905.181q-.452.041-1.177.041h-1.2A4.736,4.736,0,0,1-164.589-158.533Zm43.418-23.4a2.663,2.663,0,0,1-.814-2.023,2.636,2.636,0,0,1,.814-2.013,3.005,3.005,0,0,1,2.145-.765,2.951,2.951,0,0,1,2.115.765,2.654,2.654,0,0,1,.8,2.013,2.659,2.659,0,0,1-.816,2.023,2.949,2.949,0,0,1-2.122.776A2.955,2.955,0,0,1-121.172-181.932Zm16.258-2.472a2.471,2.471,0,0,1,.727-1.753l2.678-1.273a1.866,1.866,0,0,0,.937-1.617,1.86,1.86,0,0,0-.969-1.633l-1.652-.665a2.33,2.33,0,0,1-.224-.085,2.479,2.479,0,0,1-1.495-2.277,2.48,2.48,0,0,1,2.48-2.481,2.494,2.494,0,0,1,.835.144l8.286,4.557a2.79,2.79,0,0,1,1.423,2.433,2.792,2.792,0,0,1-1.636,2.542l-7.737,4.3a2.46,2.46,0,0,1-1.172.294A2.48,2.48,0,0,1-104.914-184.4Zm-4.555-2.624-8.287-4.557a2.79,2.79,0,0,1-1.422-2.433,2.792,2.792,0,0,1,1.635-2.542l7.738-4.3a2.467,2.467,0,0,1,1.172-.293,2.48,2.48,0,0,1,2.481,2.481,2.473,2.473,0,0,1-.727,1.753l-2.678,1.273a1.863,1.863,0,0,0-.937,1.617,1.858,1.858,0,0,0,.969,1.633l1.652.665c.076.024.15.052.223.084a2.482,2.482,0,0,1,1.5,2.278,2.481,2.481,0,0,1-2.481,2.481A2.492,2.492,0,0,1-109.469-187.029Z" transform="translate(213.835 201.151)"/></g></svg>