<svg xmlns="http://www.w3.org/2000/svg" width="39.439" height="58.581" viewBox="0 0 39.439 58.581"><defs><style>.a{fill:#007aff;}</style></defs><g transform="translate(-8.644)"><path class="a" d="M55.928,19.366a2.593,2.593,0,0,1-.681-2.908l.371-.928a2.557,2.557,0,0,0-1.67-3.464l-.99-.247A2.584,2.584,0,0,1,51.1,9.468V8.416A2.56,2.56,0,0,0,48.133,6l-.99.186a2.449,2.449,0,0,1-2.66-1.3l-.495-.866a2.55,2.55,0,0,0-3.712-.866l-.8.557a2.608,2.608,0,0,1-2.97,0L35.7,3.1a2.573,2.573,0,0,0-3.774.866l-.495.866a2.575,2.575,0,0,1-2.722,1.3l-.99-.186a2.614,2.614,0,0,0-3.031,2.413l-.062.99A2.584,2.584,0,0,1,22.768,11.7l-.99.309a2.557,2.557,0,0,0-1.67,3.464l.371.928A2.593,2.593,0,0,1,19.8,19.3l-.742.681a2.527,2.527,0,0,0,0,3.836l.742.681a2.593,2.593,0,0,1,.681,2.908l-.371.928a2.557,2.557,0,0,0,1.67,3.464l.99.247A2.584,2.584,0,0,1,24.624,34.4l.062.99a2.56,2.56,0,0,0,2.97,2.413l.99-.186a2.449,2.449,0,0,1,2.66,1.3l.495.866a2.55,2.55,0,0,0,3.712.866l.8-.557a2.608,2.608,0,0,1,2.97,0l.8.619a2.573,2.573,0,0,0,3.774-.866l.495-.866a2.575,2.575,0,0,1,2.722-1.3l.99.186A2.614,2.614,0,0,0,51.1,35.451l.062-.99a2.584,2.584,0,0,1,1.856-2.351l.99-.247A2.557,2.557,0,0,0,55.68,28.4l-.371-.928a2.593,2.593,0,0,1,.681-2.908l.742-.681a2.527,2.527,0,0,0,0-3.836ZM37.863,33.6A11.692,11.692,0,1,1,49.556,21.9,11.683,11.683,0,0,1,37.863,33.6ZM42.38,15.964l2.784,2.784L38.791,25.12l-2.784,2.722-2.784-2.784-2.66-2.66,2.784-2.784,2.66,2.66ZM18.438,56.238,24.5,41.081a6.455,6.455,0,0,0,2.66.619,6.817,6.817,0,0,0,1.114-.124H28.4l.062.124a6.272,6.272,0,0,0,5.568,3.217,6.142,6.142,0,0,0,1.856-.309L29.512,60.63a.6.6,0,0,1-1.114.062l-3.031-5.32a.415.415,0,0,0-.495-.186L19.18,56.98A.572.572,0,0,1,18.438,56.238Zm27.777,4.578L39.781,44.731a6.479,6.479,0,0,0,1.856.309,6.278,6.278,0,0,0,5.568-3.279l.062-.124h.124a6.817,6.817,0,0,0,1.114.124,6.743,6.743,0,0,0,2.722-.619l6.063,15.281a.6.6,0,0,1-.742.8l-5.692-1.794a.415.415,0,0,0-.495.186l-3.031,5.32A.67.67,0,0,1,46.215,60.816Z" transform="translate(-9.53 -2.603)"/></g></svg>