<svg xmlns="http://www.w3.org/2000/svg" width="57.273" height="53.933" viewBox="0 0 57.273 53.933"><defs><style>.a{fill:#e8e3e6;}</style></defs><g transform="translate(-33.584 -56.314)"><g transform="translate(33.584 56.314)"><path class="a" d="M70.068,102.99l1.712,4.81a1.835,1.835,0,0,1-1.73,2.444l-15.658,0a1.839,1.839,0,0,1-1.691-2.554l1.674-4.7H35.42a1.838,1.838,0,0,1-1.263-3.165L45.545,89.03c3.877-43.618,29.472-43.625,33.352,0l11.389,10.8a1.835,1.835,0,0,1-1.263,3.16ZM62.22,74.05a10.6,10.6,0,1,1-10.6,10.6,10.613,10.613,0,0,1,10.6-10.6Zm0,3.674a6.931,6.931,0,0,0,0,13.862c3.83,0-2.4-3.1-2.4-6.931S66.052,77.723,62.22,77.723ZM45.046,99.316q.03-2.522.139-4.9l-5.164,4.9Zm34.211-4.9q.109,2.374.139,4.9h5.026Zm-30.537,4.9h27C75.1,47.116,49.359,47.059,48.72,99.316Zm17.455,3.674H58.268l-1.276,3.583H67.45Z" transform="translate(-33.584 -56.314)"/></g></g></svg>