<svg xmlns="http://www.w3.org/2000/svg" width="30.83" height="30.246" viewBox="0 0 30.83 30.246"><defs><style>.a{fill:#404b9f;}</style></defs><g transform="translate(0 0)"><path class="a" d="M208.867,241.2h-2.694a.976.976,0,0,0-.974.974v1.655a.976.976,0,0,0,.974.974h2.694a.976.976,0,0,0,.974-.974v-1.655A1,1,0,0,0,208.867,241.2Z" transform="translate(-193.42 -222.735)"/><path class="a" d="M123.267,241.2h-2.694a.976.976,0,0,0-.974.974v1.655a.976.976,0,0,0,.974.974h2.694a.976.976,0,0,0,.974-.974v-1.655A1,1,0,0,0,123.267,241.2Z" transform="translate(-114.765 -222.735)"/><path class="a" d="M208.867,166.4h-2.694a.976.976,0,0,0-.974.974v1.655a.976.976,0,0,0,.974.974h2.694a.976.976,0,0,0,.974-.974v-1.655A1,1,0,0,0,208.867,166.4Z" transform="translate(-193.42 -154.003)"/><path class="a" d="M123.267,166.4h-2.694a.976.976,0,0,0-.974.974v1.655a.976.976,0,0,0,.974.974h2.694a.976.976,0,0,0,.974-.974v-1.655A1,1,0,0,0,123.267,166.4Z" transform="translate(-114.765 -154.003)"/><path class="a" d="M294.467,166.4h-2.694a.976.976,0,0,0-.974.974v1.655a.976.976,0,0,0,.974.974h2.694a.976.976,0,0,0,.974-.974v-1.655A1,1,0,0,0,294.467,166.4Z" transform="translate(-272.075 -154.003)"/><path class="a" d="M88.2,32.358V19.474a3.245,3.245,0,0,0-.844-2.174v-.032h-.032a3.313,3.313,0,0,0-2.466-1.1H82.425V14.7a1.094,1.094,0,0,0-1.1-1.1H79.666a1.094,1.094,0,0,0-1.1,1.1v1.46H69.606V14.7a1.094,1.094,0,0,0-1.1-1.1H66.847a1.094,1.094,0,0,0-1.1,1.1v1.46H63.31a3.313,3.313,0,0,0-2.466,1.1h0V17.3A3.245,3.245,0,0,0,60,19.474V37.161a3.324,3.324,0,0,0,3.31,3.31H78.855A6.355,6.355,0,1,0,88.2,32.358ZM78.109,37.485a6.3,6.3,0,0,0,.065.779H63.31a1.094,1.094,0,0,1-1.1-1.1V23.66H85.962v7.659a5.708,5.708,0,0,0-1.493-.195A6.371,6.371,0,0,0,78.109,37.485Zm8.989-.649-2.629,2.823a.862.862,0,0,1-1.233,0l-1.558-1.688a.826.826,0,1,1,1.2-1.136l.974,1.038L85.865,35.7a.823.823,0,0,1,1.168-.032A.8.8,0,0,1,87.1,36.836Z" transform="translate(-60 -13.6)"/></g></svg>