<svg xmlns="http://www.w3.org/2000/svg" width="11.586" height="11.472" viewBox="0 0 11.586 11.472"><defs><style>.a{opacity:0.3;}.b{fill:#fff;}</style></defs><g class="a"><g transform="translate(0 0)"><path class="b" d="M16.566,8.794H11.4V5.582a.411.411,0,0,0-.382-.382H5.782a.411.411,0,0,0-.382.382V16.289a.383.383,0,0,0,.382.382H16.6a.383.383,0,0,0,.382-.382V9.177A.449.449,0,0,0,16.566,8.794ZM8.994,15.907H7.847V12.962H8.994Zm1.644,0H9.721V12.58a.383.383,0,0,0-.382-.382H7.427a.361.361,0,0,0-.382.382v3.327H6.165V5.965h4.512v9.942Zm2.6,0v-2.18h1.147v2.18Zm2.944,0H15.113V13.345a.383.383,0,0,0-.382-.382H12.818a.383.383,0,0,0-.382.382v2.562H11.365V9.559h4.78v6.348Z" transform="translate(-5.4 -5.2)"/></g><path class="b" d="M9.182,11.365a.347.347,0,0,1-.268-.115.413.413,0,0,1-.115-.268.347.347,0,0,1,.115-.268.37.37,0,0,1,.535,0,.37.37,0,0,1,0,.535A.413.413,0,0,1,9.182,11.365Z" transform="translate(-7.5 -8.535)"/><path class="b" d="M16.182,11.365a.347.347,0,0,1-.268-.115.413.413,0,0,1-.115-.268.347.347,0,0,1,.115-.268.37.37,0,0,1,.535,0,.37.37,0,0,1,0,.535A.413.413,0,0,1,16.182,11.365Z" transform="translate(-11.823 -8.535)"/><path class="b" d="M9.182,15.365a.347.347,0,0,1-.268-.115.413.413,0,0,1-.115-.268.347.347,0,0,1,.115-.268.37.37,0,0,1,.535,0,.37.37,0,0,1,0,.535A.413.413,0,0,1,9.182,15.365Z" transform="translate(-7.5 -11.006)"/><path class="b" d="M16.182,15.365a.347.347,0,0,1-.268-.115.413.413,0,0,1-.115-.268.347.347,0,0,1,.115-.268.37.37,0,0,1,.535,0,.37.37,0,0,1,0,.535A.413.413,0,0,1,16.182,15.365Z" transform="translate(-11.823 -11.006)"/><path class="b" d="M9.182,19.365a.347.347,0,0,1-.268-.115.413.413,0,0,1-.115-.268.347.347,0,0,1,.115-.268.37.37,0,0,1,.535,0,.37.37,0,0,1,0,.535A.413.413,0,0,1,9.182,19.365Z" transform="translate(-7.5 -13.476)"/><path class="b" d="M16.182,19.365a.379.379,0,0,1-.268-.65.37.37,0,0,1,.535,0,.37.37,0,0,1,0,.535A.413.413,0,0,1,16.182,19.365Z" transform="translate(-11.823 -13.476)"/><path class="b" d="M12.682,11.365a.347.347,0,0,1-.268-.115.413.413,0,0,1-.115-.268.347.347,0,0,1,.115-.268.37.37,0,0,1,.535,0,.382.382,0,0,1-.268.65Z" transform="translate(-9.662 -8.535)"/><path class="b" d="M12.682,15.365a.347.347,0,0,1-.268-.115.413.413,0,0,1-.115-.268.347.347,0,0,1,.115-.268.37.37,0,0,1,.535,0,.382.382,0,0,1-.268.65Z" transform="translate(-9.662 -11.006)"/><path class="b" d="M12.682,19.365a.379.379,0,0,1-.268-.65.37.37,0,0,1,.535,0,.382.382,0,0,1-.268.65Z" transform="translate(-9.662 -13.476)"/></g></svg>