<svg xmlns="http://www.w3.org/2000/svg" width="18.95" height="7.908" viewBox="0 0 18.95 7.908"><defs><style>.a{fill:#007aff;}</style></defs><path class="a" d="M17.512,18.926a1.628,1.628,0,0,0-1.626,1.626,1.611,1.611,0,0,0,.122.617l-3.3,2.794a1.62,1.62,0,0,0-2.183-.283L7.628,21.1a1.611,1.611,0,0,0,.184-.749,1.626,1.626,0,1,0-3.125.628L.345,24.665a.447.447,0,0,0,.579.681l4.324-3.673a1.613,1.613,0,0,0,1.765.073l2.953,2.63a1.626,1.626,0,1,0,3.125.629,1.649,1.649,0,0,0-.011-.185l3.484-2.951a1.625,1.625,0,1,0,.949-2.944ZM5.454,20.349a.732.732,0,1,1,.732.732A.733.733,0,0,1,5.454,20.349Zm6.011,5.389a.733.733,0,1,1,.732-.733A.734.734,0,0,1,11.465,25.738Zm6.047-4.454a.732.732,0,1,1,.732-.732A.733.733,0,0,1,17.512,21.284Z" transform="translate(-0.187 -18.723)"/></svg>