<svg xmlns="http://www.w3.org/2000/svg" width="38" height="40" viewBox="0 0 38 40"><defs><style>.a{fill:#a5a5a5;}.b{fill:#fff;fill-rule:evenodd;}</style></defs><g transform="translate(0.076 0.446)"><ellipse class="a" cx="19" cy="20" rx="19" ry="20" transform="translate(-0.076 -0.446)"/><g transform="translate(11.175 8.861)"><path class="b" d="M150.734,178.057a4.557,4.557,0,0,0,.608,8.025c-.368.759-.7,1.536-1.11,2.269a8.692,8.692,0,0,1-1.919,2.392,2.052,2.052,0,0,1-2.028.464c-.639-.187-1.282-.364-1.92-.556a3.242,3.242,0,0,0-1.935.041c-.569.176-1.141.339-1.707.523a1.827,1.827,0,0,1-1.792-.311,8.75,8.75,0,0,1-1.287-1.284,12.2,12.2,0,0,1-2.6-6.037,7.784,7.784,0,0,1,.342-4.056,4.992,4.992,0,0,1,3.44-3.268,4.532,4.532,0,0,1,2.667.2c.417.142.848.249,1.254.417a1.5,1.5,0,0,0,1.071-.033c.887-.267,1.772-.555,2.678-.735A4.4,4.4,0,0,1,150.734,178.057Z" transform="translate(-134.926 -171.272)"/><path class="b" d="M253.044,109.4c.356,2.14-1.926,4.908-3.891,4.505C248.663,112.031,251.077,109.221,253.044,109.4Z" transform="translate(-240.899 -109.392)"/></g></g></svg>