<svg id="ic_connectise" xmlns="http://www.w3.org/2000/svg" width="29.684" height="21.761" viewBox="0 0 29.684 21.761">
  <path id="Trazado_227" data-name="Trazado 227" d="M271.917,198.109a12.464,12.464,0,0,1,2.884.321c.685.167,1.358.392,2.028.613.614.2,1.229.411,1.825.659,1.029.429,2.055.866,3.061,1.345a21.332,21.332,0,0,1,2.889,1.671.811.811,0,0,0,1.009-.02,26.283,26.283,0,0,1,3.492-1.972,29.154,29.154,0,0,1,3.227-1.32c.738-.246,1.463-.536,2.209-.752a12.152,12.152,0,0,1,1.866-.393c.751-.094,1.512-.114,2.269-.146a1.1,1.1,0,0,1,.5.115.491.491,0,0,1,.046.9,4.672,4.672,0,0,1-.761.356,19.42,19.42,0,0,0-4.128,2.177,22.63,22.63,0,0,0-3.322,2.834,16.526,16.526,0,0,0-2.572,3.622,22.146,22.146,0,0,0-1.361,2.984c-.357.98-.659,1.98-.966,2.977a1.089,1.089,0,0,1-1.717.56,1.28,1.28,0,0,1-.369-.724c-.207-.652-.391-1.311-.611-1.959a24.446,24.446,0,0,0-1.726-3.941,16.476,16.476,0,0,0-3.338-4.32,23.2,23.2,0,0,0-3.434-2.642,20.752,20.752,0,0,0-3.572-1.714,1.493,1.493,0,0,1-.445-.258.5.5,0,0,1,.176-.885,1.816,1.816,0,0,1,.421-.082C271.639,198.1,271.778,198.109,271.917,198.109Z" transform="translate(-269.809 -193.107)" fill="#e8e3e6" fill-rule="evenodd"/>
  <path id="Trazado_228" data-name="Trazado 228" d="M306.7,165.072a17,17,0,0,1,3.167.247,14.5,14.5,0,0,1,5.953,2.452c.43.3.821.663,1.221,1.008a.824.824,0,0,1,.213.309c.1.246-.036.465-.333.546s-.6.137-.892.217c-.765.206-1.536.4-2.29.636s-1.506.5-2.235.809c-.867.366-1.72.769-2.558,1.2-.622.318-1.212.7-1.814,1.06a.7.7,0,0,1-.8-.028,20.21,20.21,0,0,0-3.075-1.683c-1.017-.442-2.044-.871-3.091-1.231-.947-.326-1.927-.553-2.894-.819-.225-.062-.465-.08-.683-.16-.361-.132-.525-.341-.229-.7a5.476,5.476,0,0,1,.822-.773,12.954,12.954,0,0,1,2.513-1.571,15.019,15.019,0,0,1,2.816-1.022,16.959,16.959,0,0,1,3.643-.492C306.336,165.067,306.517,165.072,306.7,165.072Z" transform="translate(-291.457 -165.07)" fill="#e8e3e6" fill-rule="evenodd"/>
  <path id="Trazado_229" data-name="Trazado 229" d="M293.711,231.986c.116.158.223.285.311.425.441.7.876,1.41,1.318,2.112a.24.24,0,0,1-.061.365,5.431,5.431,0,0,1-2.748,1.329,4.559,4.559,0,0,1-2.772-.428,4.815,4.815,0,0,1-2.365-2.472,4.765,4.765,0,0,1-.346-2.581,4.84,4.84,0,0,1,1.887-3.246.275.275,0,0,1,.419,0c.576.517,1.164,1.02,1.746,1.53a1.887,1.887,0,0,1,.147.167,2.222,2.222,0,0,0-1.428,1.065,2.151,2.151,0,0,0-.232,1.414,2.222,2.222,0,0,0,1.542,1.674A2.193,2.193,0,0,0,293.711,231.986Z" transform="translate(-283.641 -217.964)" fill="#e8e3e6" fill-rule="evenodd"/>
  <path id="Trazado_230" data-name="Trazado 230" d="M264.8,222.107a20.964,20.964,0,0,1,.357-3.07,16.087,16.087,0,0,1,1.319-3.876.668.668,0,0,1,1-.341c.451.236.9.485,1.332.748a.665.665,0,0,1,.109,1.057,5.866,5.866,0,0,0-1.656,3.14,5.327,5.327,0,0,0,.14,2.678,7.09,7.09,0,0,0,.583,1.351.729.729,0,0,1-.447,1.157,3.149,3.149,0,0,1-2,.02.674.674,0,0,1-.521-.616Q264.906,223.23,264.8,222.107Z" transform="translate(-264.799 -207.204)" fill="#e8e3e6" fill-rule="evenodd"/>
</svg>
