<svg xmlns="http://www.w3.org/2000/svg" width="14.975" height="12.445" viewBox="0 0 14.975 12.445">
  <g id="ic_contacts" transform="translate(0.625 0.625)" opacity="0.3">
    <ellipse id="Elipse_4" data-name="Elipse 4" cx="2.073" cy="2.073" rx="2.073" ry="2.073" transform="translate(4.79 2.436)" fill="none" stroke="#fff" stroke-linejoin="round" stroke-width="1.25"/>
    <path id="Trazado_210" data-name="Trazado 210" d="M280.5,193.75a3.627,3.627,0,0,0-3.6,3.179,5.229,5.229,0,0,0,7.195,0A3.626,3.626,0,0,0,280.5,193.75Z" transform="translate(-273.633 -187.168)" fill="none" stroke="#fff" stroke-linejoin="round" stroke-width="1.25"/>
    <path id="Trazado_211" data-name="Trazado 211" d="M302.073,162a2.07,2.07,0,0,0-1.857,2.991,2.073,2.073,0,0,1,.449.6A2.072,2.072,0,1,0,302.073,162Z" transform="translate(-291.945 -162)" fill="none" stroke="#fff" stroke-linejoin="round" stroke-width="1.25"/>
    <path id="Trazado_212" data-name="Trazado 212" d="M280.5,193.75a3.627,3.627,0,0,0-3.6,3.179,5.229,5.229,0,0,0,7.195,0A3.626,3.626,0,0,0,280.5,193.75Z" transform="translate(-273.633 -187.168)" fill="none" stroke="#fff" stroke-linejoin="round" stroke-width="1.25"/>
    <path id="Trazado_213" data-name="Trazado 213" d="M272.43,164.991a2.078,2.078,0,1,0-.449.6A2.073,2.073,0,0,1,272.43,164.991Z" transform="translate(-266.976 -162)" fill="none" stroke="#fff" stroke-linejoin="round" stroke-width="1.25"/>
    <g id="Grupo_10" data-name="Grupo 10" transform="translate(0 4.146)">
      <path id="Trazado_214" data-name="Trazado 214" d="M297.571,186.612a5.214,5.214,0,0,0,3.542-1.433,3.62,3.62,0,0,0-4.8-2.973c0,.052.008.1.008.157a2.073,2.073,0,0,1-2.073,2.073A3.624,3.624,0,0,1,297.571,186.612Z" transform="translate(-287.387 -182)" fill="none" stroke="#fff" stroke-linejoin="round" stroke-width="1.25"/>
      <path id="Trazado_215" data-name="Trazado 215" d="M268.011,184.436a2.073,2.073,0,0,1-2.073-2.073c0-.053,0-.1.008-.157a3.62,3.62,0,0,0-4.8,2.973,5.215,5.215,0,0,0,3.542,1.433A3.623,3.623,0,0,1,268.011,184.436Z" transform="translate(-261.148 -182)" fill="none" stroke="#fff" stroke-linejoin="round" stroke-width="1.25"/>
    </g>
  </g>
</svg>
