<svg xmlns="http://www.w3.org/2000/svg" width="39" height="40" viewBox="0 0 39 40"><defs><style>.a{fill:#fff;}.b{fill:#ea4335;}.c{fill:#fbbc05;}.d{fill:#4285f4;}.e{fill:#34a853;}</style></defs><g transform="translate(-0.088 0.446)"><ellipse class="a" cx="19.5" cy="20" rx="19.5" ry="20" transform="translate(0.088 -0.446)"/><path class="b" d="M-1751.23,36.527l3.8,2.905a6.661,6.661,0,0,1,6.341-4.575,6.53,6.53,0,0,1,4.159,1.489l3.286-3.286a11.244,11.244,0,0,0-7.446-2.824,11.263,11.263,0,0,0-10.14,6.291Z" transform="translate(1760.916 -21.574)"/><path class="c" d="M-1775.344,191.465a6.7,6.7,0,0,1,.335-2.1l-3.8-2.905a11.308,11.308,0,0,0-1.157,5,11.307,11.307,0,0,0,1.157,5l3.8-2.905a6.7,6.7,0,0,1-.335-2.1Z" transform="translate(1788.495 -171.507)"/><path class="d" d="M-1499.46,259.736V264.1h6.057a5.09,5.09,0,0,1-2.3,3.38l3.607,2.793a11.247,11.247,0,0,0,3.42-8.479,9.358,9.358,0,0,0-.256-2.054Z" transform="translate(1519.289 -241.832)"/><path class="e" d="M-1736.9,366.576l-.472-.336a6.989,6.989,0,0,1-3.756.985,6.661,6.661,0,0,1-6.342-4.585l-3.8,2.912a11.263,11.263,0,0,0,10.14,6.295,10.76,10.76,0,0,0,7.365-2.817Z" transform="translate(1760.951 -340.592)"/></g></svg>