<svg id="ic_infutionsoft" xmlns="http://www.w3.org/2000/svg" width="15.453" height="25.968" viewBox="0 0 15.453 25.968">
  <path id="Trazado_231" data-name="Trazado 231" d="M86.934,224.665c-.323-.132-.642-.277-.971-.395q-6.436-2.313-12.873-4.619c-.46-.165-.923-.323-1.378-.5a.31.31,0,0,1-.169-.222q-.011-5.154,0-10.308a.44.44,0,0,1,.025-.082l10.722,3.855-9.752,6.055,13.5,4.844c.006-.129.013-.212.013-.294q0-4.507.006-9.013a.33.33,0,0,0-.27-.372c-1.082-.377-2.159-.77-3.237-1.159-.039-.014-.075-.035-.159-.074.339-.212.647-.409.963-.594.044-.026.13,0,.189.022,1.095.391,2.19.781,3.28,1.184a.307.307,0,0,1,.17.222q.01,5.712,0,11.425a.189.189,0,0,1,0,.025Z" transform="translate(-71.537 -198.696)" fill="#e8e3e6" fill-rule="evenodd"/>
  <path id="Trazado_232" data-name="Trazado 232" d="M71.783,129.458,85.9,120.7c.008.128.018.215.018.3q0,5.523,0,11.045a.366.366,0,0,1-.2.364c-.659.4-1.306.81-1.966,1.2a.454.454,0,0,1-.341.032q-5.75-2.052-11.5-4.12C71.884,129.511,71.85,129.49,71.783,129.458Z" transform="translate(-71.755 -120.696)" fill="#e8e3e6" fill-rule="evenodd"/>
</svg>
