<svg id="ic_link" xmlns="http://www.w3.org/2000/svg" width="13.563" height="9.556" viewBox="0 0 13.563 9.556">
  <path id="Trazado_233" data-name="Trazado 233" d="M192.932,14.952c.038.012.075.026.111.042a1.233,1.233,0,0,1-.9,2.293l-4.118-2.264a1.387,1.387,0,0,1,.106-2.472l3.845-2.136a1.233,1.233,0,0,1,1.454,1.958l-1.331.632a.925.925,0,0,0,.016,1.615Z" transform="translate(-187.313 -10.269)" fill="#1edb83"/>
  <path id="Trazado_234" data-name="Trazado 234" d="M215.718,22.259c-.038-.012-.075-.026-.111-.042a1.233,1.233,0,0,1,.9-2.293l4.118,2.264a1.387,1.387,0,0,1-.106,2.472L216.678,26.8a1.233,1.233,0,0,1-1.454-1.958l1.331-.632a.925.925,0,0,0-.016-1.615Z" transform="translate(-207.774 -17.386)" fill="#1edb83"/>
</svg>
