<svg xmlns="http://www.w3.org/2000/svg" width="38" height="40" viewBox="0 0 38 40">
  <g id="ic_outlook_" data-name="ic_outlook " transform="translate(-0.238 0.446)">
    <ellipse id="Elipse_1" data-name="Elipse 1" cx="19" cy="20" rx="19" ry="20" transform="translate(0.238 -0.446)" fill="#0072c6"/>
    <g id="Outlook.com_icon" transform="translate(8.621 8.861)">
      <path id="path3" d="M64.566,22.116v4.327l1.512.952a.387.387,0,0,0,.166,0l6.508-4.388A.927.927,0,0,0,72,22.116H64.566Z" transform="translate(-50.874 -17.426)" fill="#fff"/>
      <path id="path5" d="M64.563,37.868l1.38.948a.412.412,0,0,0,.429,0c-.233.143,6.379-4.249,6.379-4.249V42.52a1.113,1.113,0,0,1-1.177,1.229H64.563V37.868Z" transform="translate(-50.871 -27.237)" fill="#fff"/>
      <g id="g23" transform="translate(0 0)">
        <path id="path25" d="M38.643,82.111a1.271,1.271,0,0,0-1.122.662,3.264,3.264,0,0,0-.415,1.752,3.2,3.2,0,0,0,.415,1.75,1.262,1.262,0,0,0,2.189.017,3.171,3.171,0,0,0,.407-1.737,3.452,3.452,0,0,0-.395-1.8,1.214,1.214,0,0,0-1.08-.643Z" transform="translate(-32.096 -73.474)" fill="#fff"/>
        <path id="path27" d="M13.481,43.877V60.806l12.878,2.7V41.384ZM22.1,55.2a2.553,2.553,0,0,1-2.13,1.075,2.52,2.52,0,0,1-2.085-1.041,4.313,4.313,0,0,1-.806-2.714,4.636,4.636,0,0,1,.818-2.857,2.581,2.581,0,0,1,2.169-1.091,2.461,2.461,0,0,1,2.062,1.044,4.455,4.455,0,0,1,.788,2.753A4.553,4.553,0,0,1,22.1,55.2Z" transform="translate(-13.481 -41.384)" fill="#fff"/>
      </g>
    </g>
  </g>
</svg>
