<svg xmlns="http://www.w3.org/2000/svg" width="49.923" height="64.94" viewBox="0 0 49.923 64.94"><defs><style>.a{fill:#5d49c7;}</style></defs><path class="a" d="M1491.148,36.2h-3.028V27.158a14.158,14.158,0,1,0-28.317,0V36.2h-3.028A7.784,7.784,0,0,0,1449,43.977V70.166a7.784,7.784,0,0,0,7.775,7.775h34.373a7.784,7.784,0,0,0,7.775-7.775V43.977A7.784,7.784,0,0,0,1491.148,36.2Zm-26.271-9.043a9.084,9.084,0,1,1,18.168,0V36.2h-18.168Zm28.971,43.007a2.7,2.7,0,0,1-2.7,2.7h-34.373a2.7,2.7,0,0,1-2.7-2.7V43.977a2.7,2.7,0,0,1,2.7-2.7h34.373a2.7,2.7,0,0,1,2.7,2.7Z" transform="translate(-1449 -13)"/><path class="a" d="M1584.774,234.75a3.274,3.274,0,0,0-3.274,3.274v9a3.274,3.274,0,1,0,6.547,0v-9A3.273,3.273,0,0,0,1584.774,234.75Z" transform="translate(-1559.812 -198.454)"/></svg>