<svg xmlns="http://www.w3.org/2000/svg" width="25.121" height="20.859" viewBox="0 0 25.121 20.859"><defs><style>.a{fill:none;stroke:#5d49c7;stroke-linejoin:round;stroke-width:2px;}</style></defs><g transform="translate(1 1)"><ellipse class="a" cx="3.492" cy="3.492" rx="3.492" ry="3.492" transform="translate(8.068 4.104)"/><path class="a" d="M282.958,193.75a6.109,6.109,0,0,0-6.06,5.355,8.809,8.809,0,0,0,12.12,0A6.109,6.109,0,0,0,282.958,193.75Z" transform="translate(-271.398 -182.662)"/><path class="a" d="M303.492,162a3.487,3.487,0,0,0-3.128,5.038,3.492,3.492,0,0,1,.756,1.012,3.491,3.491,0,1,0,2.372-6.05Z" transform="translate(-286.432 -162)"/><path class="a" d="M282.958,193.75a6.109,6.109,0,0,0-6.06,5.355,8.809,8.809,0,0,0,12.12,0A6.109,6.109,0,0,0,282.958,193.75Z" transform="translate(-271.398 -182.662)"/><path class="a" d="M275.12,167.038a3.5,3.5,0,1,0-.756,1.012A3.491,3.491,0,0,1,275.12,167.038Z" transform="translate(-265.932 -162)"/><g transform="translate(0 6.985)"><path class="a" d="M299.844,189.768a8.784,8.784,0,0,0,5.967-2.414,6.1,6.1,0,0,0-8.081-5.008c.006.088.013.175.013.264a3.492,3.492,0,0,1-3.492,3.492A6.1,6.1,0,0,1,299.844,189.768Z" transform="translate(-282.69 -182)"/><path class="a" d="M272.708,186.1a3.492,3.492,0,0,1-3.492-3.492c0-.089.007-.176.013-.264a6.1,6.1,0,0,0-8.081,5.008,8.784,8.784,0,0,0,5.967,2.414A6.1,6.1,0,0,1,272.708,186.1Z" transform="translate(-261.148 -182)"/></g></g></svg>