<svg xmlns="http://www.w3.org/2000/svg" width="53.799" height="60.8" viewBox="0 0 53.799 60.8"><defs><style>.a,.c{fill:none;stroke:#5d49c7;stroke-width:4px;}.a{stroke-linejoin:round;}.b{fill:#212754;}.d,.e{stroke:none;}.e{fill:#5d49c7;}</style></defs><g transform="translate(2 2)"><g transform="translate(0 0)"><ellipse class="a" cx="12.11" cy="12.111" rx="12.11" ry="12.111" transform="translate(8.904 0)"/><path class="a" d="M297.912,193.75A21.184,21.184,0,0,0,276.9,212.319a30.546,30.546,0,0,0,42.028,0A21.184,21.184,0,0,0,297.912,193.75Z" transform="translate(-276.898 -169.529)"/><path class="a" d="M297.912,193.75A21.184,21.184,0,0,0,276.9,212.319a30.546,30.546,0,0,0,42.028,0A21.184,21.184,0,0,0,297.912,193.75Z" transform="translate(-276.898 -169.529)"/></g><g class="b" transform="translate(25.451 31.74)"><path class="d" d="M 13.1741771697998 25.06047439575195 C 10.19954681396484 25.06047439575195 7.40011739730835 23.86786460876465 5.291567325592041 21.70232582092285 C 3.168967247009277 19.5223560333252 1.999997138977051 16.62011528015137 1.999997138977051 13.53023529052734 C 1.999997138977051 10.44035530090332 3.168967247009277 7.538115501403809 5.291567325592041 5.358155250549316 C 7.40011739730835 3.192615270614624 10.19954681396484 2.00000524520874 13.1741771697998 2.00000524520874 C 16.14880752563477 2.00000524520874 18.9482364654541 3.192615270614624 21.05678749084473 5.358155250549316 C 23.17938804626465 7.538115501403809 24.34835624694824 10.44035530090332 24.34835624694824 13.53023529052734 C 24.34835624694824 16.62011528015137 23.17938804626465 19.5223560333252 21.05678749084473 21.70232582092285 C 18.9482364654541 23.86786460876465 16.14880752563477 25.06047439575195 13.1741771697998 25.06047439575195 Z"/><path class="e" d="M 13.1741771697998 3.999996185302734 C 8.115516662597656 3.999996185302734 3.999998092651367 8.275245666503906 3.999998092651367 13.53023529052734 C 3.999998092651367 18.78522491455078 8.115516662597656 23.06046485900879 13.1741771697998 23.06046485900879 C 18.23283767700195 23.06046485900879 22.34835815429688 18.78522491455078 22.34835815429688 13.53023529052734 C 22.34835815429688 8.275245666503906 18.23283767700195 3.999996185302734 13.1741771697998 3.999996185302734 M 13.1741771697998 -3.814697265625e-06 C 20.45007705688477 -3.814697265625e-06 26.34835624694824 6.057695388793945 26.34835624694824 13.53023529052734 C 26.34835624694824 21.00277519226074 20.45007705688477 27.06046485900879 13.1741771697998 27.06046485900879 C 5.898277282714844 27.06046485900879 -1.9073486328125e-06 21.00277519226074 -1.9073486328125e-06 13.53023529052734 C -1.9073486328125e-06 6.057695388793945 5.898277282714844 -3.814697265625e-06 13.1741771697998 -3.814697265625e-06 Z"/></g><path class="c" d="M2979,4114.5h12.069" transform="translate(-2946.484 -4069.367)"/><path class="c" d="M0,0H12.068" transform="translate(38.55 51.167) rotate(-90)"/></g></svg>