<svg xmlns="http://www.w3.org/2000/svg" width="11.193" height="11.195" viewBox="0 0 11.193 11.195"><defs><style>.a{opacity:0.3;}.b{fill:#fff;}</style></defs><g class="a"><g transform="translate(0 0)"><g transform="translate(0 0.616)"><path class="b" d="M28.82,78.738a4.889,4.889,0,0,1-.042.632l.02-.151a4.729,4.729,0,0,1-.325,1.2c.019-.045.039-.091.057-.135a4.73,4.73,0,0,1-.618,1.059L28,81.222a4.789,4.789,0,0,1-.851.851l.115-.089a4.817,4.817,0,0,1-1.059.618l.135-.057a4.755,4.755,0,0,1-1.2.325l.151-.02a4.8,4.8,0,0,1-1.263,0l.151.02a4.729,4.729,0,0,1-1.2-.325l.135.057a4.729,4.729,0,0,1-1.059-.618l.115.089a4.789,4.789,0,0,1-.851-.851l.089.115a4.818,4.818,0,0,1-.618-1.059c.019.045.039.091.057.135a4.755,4.755,0,0,1-.325-1.2l.02.151a4.8,4.8,0,0,1,0-1.263l-.02.151a4.729,4.729,0,0,1,.325-1.2c-.019.045-.039.091-.057.135a4.729,4.729,0,0,1,.618-1.059l-.089.115a4.788,4.788,0,0,1,.851-.851l-.115.089a4.817,4.817,0,0,1,1.059-.618l-.135.057a4.754,4.754,0,0,1,1.2-.325l-.151.02a4.826,4.826,0,0,1,1.267,0l-.151-.02a4.778,4.778,0,0,1,1.205.329l-.135-.057a4.879,4.879,0,0,1,.749.4c-.039-.3-.076-.6-.115-.892-.017.017-.034.033-.05.05a.741.741,0,0,0-.058.07.53.53,0,0,0-.111.268c-.017.124-.014.055.01.227.006.045.012.09.018.135.008.061.017.123.025.184.031.218.06.436.091.654l.031.22a.574.574,0,0,0,.147.251.568.568,0,0,0,.251.147l1.01.14.176.024c.052.007.107.019.16.022a.584.584,0,0,0,.407-.172l.058-.058-.892-.115a4.782,4.782,0,0,1,.4.749c-.019-.045-.039-.091-.057-.135a4.765,4.765,0,0,1,.329,1.205l-.02-.151a4.762,4.762,0,0,1,.042.636.591.591,0,0,0,.166.4.571.571,0,0,0,.8,0,.584.584,0,0,0,.166-.4,5.392,5.392,0,0,0-.552-2.352,4.854,4.854,0,0,0-.3-.524.572.572,0,0,0-.415-.272.553.553,0,0,0-.477.157l-.064.064.552-.147-1.008-.14-.187-.026.4.4c-.042-.306-.085-.611-.127-.917-.012-.093-.026-.185-.039-.278l-.147.552.064-.064a.559.559,0,0,0,.157-.477.567.567,0,0,0-.272-.415,5.3,5.3,0,0,0-5.655-.06,5.29,5.29,0,0,0,5.1,9.254,5.28,5.28,0,0,0,2.93-4.146,4.733,4.733,0,0,0,.039-.608.591.591,0,0,0-.166-.4.571.571,0,0,0-.8,0A.6.6,0,0,0,28.82,78.738Z" transform="translate(-19.377 -73.447)"/></g><g transform="translate(2.449 3.066)"><path class="b" d="M239.5,292a2.379,2.379,0,0,1-.019.3l.02-.151a2.3,2.3,0,0,1-.16.589c.019-.045.039-.091.057-.135a2.31,2.31,0,0,1-.294.5l.089-.115a2.347,2.347,0,0,1-.408.408l.115-.089a2.384,2.384,0,0,1-.5.294l.135-.057a2.307,2.307,0,0,1-.589.16l.151-.02a2.4,2.4,0,0,1-.6,0l.151.02a2.307,2.307,0,0,1-.589-.16l.135.057a2.309,2.309,0,0,1-.5-.294l.115.089a2.347,2.347,0,0,1-.408-.408l.089.115a2.386,2.386,0,0,1-.294-.5c.019.046.039.091.057.135a2.306,2.306,0,0,1-.16-.589l.02.151a2.4,2.4,0,0,1,0-.6l-.02.151a2.306,2.306,0,0,1,.16-.588c-.019.045-.039.091-.057.135a2.312,2.312,0,0,1,.294-.5l-.089.115a2.346,2.346,0,0,1,.408-.408l-.115.089a2.389,2.389,0,0,1,.5-.294l-.135.057a2.3,2.3,0,0,1,.589-.16l-.151.02a2.4,2.4,0,0,1,.6,0l-.151-.02a2.3,2.3,0,0,1,.589.16l-.135-.057a2.313,2.313,0,0,1,.5.294l-.115-.089a2.348,2.348,0,0,1,.408.408l-.089-.115a2.386,2.386,0,0,1,.294.5c-.019-.045-.039-.091-.057-.135a2.3,2.3,0,0,1,.16.588l-.02-.151a2.4,2.4,0,0,1,.019.3.586.586,0,0,0,.166.4.571.571,0,0,0,.8,0,.584.584,0,0,0,.166-.4,2.808,2.808,0,0,0-.5-1.61,3.285,3.285,0,0,0-.3-.372,3.166,3.166,0,0,0-.364-.311,2.834,2.834,0,0,0-2.452-.437,2.806,2.806,0,0,0-1.38.893,3.283,3.283,0,0,0-.277.383,3.122,3.122,0,0,0-.211.444,2.741,2.741,0,0,0-.182.836,2.827,2.827,0,0,0,1.617,2.738,3.138,3.138,0,0,0,.449.17,3.227,3.227,0,0,0,.5.089,2.828,2.828,0,0,0,3.061-2.328,3.465,3.465,0,0,0,.047-.5.591.591,0,0,0-.166-.4.568.568,0,0,0-.969.4Z" transform="translate(-234.957 -289.158)"/></g><g transform="translate(4.721 2.646)"><path class="b" d="M435.87,255.823l.915-.915,1.446-1.446.329-.329a.57.57,0,0,0,0-.8.572.572,0,0,0-.4-.166.6.6,0,0,0-.4.166l-.915.915-1.446,1.446-.329.329a.571.571,0,0,0,0,.8.572.572,0,0,0,.4.166.586.586,0,0,0,.4-.166Z" transform="translate(-434.9 -252.162)"/></g><g transform="translate(7.245 0)"><path class="b" d="M660.042,20.789l-.5.5-.761.761-.186.186.552-.147-1.008-.14-.187-.026.4.4c-.042-.306-.085-.611-.127-.917-.012-.093-.026-.185-.039-.278l-.147.552.475-.475.79-.79.186-.186-.95-.251c.048.348.1.7.144,1.044l.02.15a.575.575,0,0,0,.147.251.568.568,0,0,0,.251.147l1.044.144.15.02a.639.639,0,0,0,.437-.057.568.568,0,0,0,.2-.777.548.548,0,0,0-.34-.261l-1.044-.144-.15-.02.4.4c-.048-.348-.1-.7-.144-1.044l-.02-.15a.576.576,0,0,0-.147-.251.567.567,0,0,0-.8,0l-1.008,1.008-.378.378-.033.033-.031.031a.4.4,0,0,0-.118.184.428.428,0,0,0-.049.219c.007.051.014.1.02.151l.024.174.031.218c.038.268.074.535.111.8a.571.571,0,0,0,.4.4l.712.1.217.03.208.028.057.008c.173.024.1.027.227.01a.555.555,0,0,0,.326-.157l.032-.032.992-.992.427-.427a.571.571,0,0,0,0-.8.572.572,0,0,0-.4-.166A.6.6,0,0,0,660.042,20.789Z" transform="translate(-657.062 -19.261)"/></g></g></g></svg>