<svg xmlns="http://www.w3.org/2000/svg" width="24.25" height="25.707" viewBox="0 0 24.25 25.707"><defs><style>.a{fill:#fff;}</style></defs><g transform="matrix(0.259, 0.966, -0.966, 0.259, 18.705, 0)"><path class="a" d="M21.123.6a1.489,1.489,0,0,0-1.562-.56L1.153,4.5a1.512,1.512,0,0,0-.378,2.79l6.5,3.627,1.6,7.267a1.5,1.5,0,0,0,1.241,1.165,1.531,1.531,0,0,0,.239.019,1.491,1.491,0,0,0,1.3-.749L21.217,2.267A1.5,1.5,0,0,0,21.123.6ZM7.98,9.289,2.192,6.058,17.338,2.393Zm2.481,7.884-1.43-6.467L18.2,3.948Z" transform="translate(0 0)"/></g></svg>