<svg xmlns="http://www.w3.org/2000/svg" width="54.479" height="61.572" viewBox="0 0 54.479 61.572"><defs><style>.a,.c{fill:none;stroke:#007aff;stroke-width:4px;}.a{stroke-linejoin:round;}.b{fill:#212754;}.d,.e{stroke:none;}.e{fill:#007aff;}</style></defs><g transform="translate(2 2)"><g transform="translate(0 0)"><ellipse class="a" cx="12.269" cy="12.27" rx="12.269" ry="12.27" transform="translate(9.021 0)"/><path class="a" d="M298.188,193.75a21.462,21.462,0,0,0-21.29,18.813,30.947,30.947,0,0,0,42.58,0A21.462,21.462,0,0,0,298.188,193.75Z" transform="translate(-276.898 -169.211)"/><path class="a" d="M298.188,193.75a21.462,21.462,0,0,0-21.29,18.813,30.947,30.947,0,0,0,42.58,0A21.462,21.462,0,0,0,298.188,193.75Z" transform="translate(-276.898 -169.211)"/></g><g class="b" transform="translate(25.785 32.156)"><path class="d" d="M 13.34709358215332 25.4156551361084 C 10.32627391815186 25.4156551361084 7.483423709869385 24.20456504821777 5.34221363067627 22.00548553466797 C 3.186953544616699 19.7919750213623 2.000003576278687 16.84514617919922 2.000003576278687 13.70782566070557 C 2.000003576278687 10.57050609588623 3.186953544616699 7.62367582321167 5.34221363067627 5.410165786743164 C 7.483423709869385 3.211085557937622 10.32627391815186 1.999995708465576 13.34709358215332 1.999995708465576 C 16.3679141998291 1.999995708465576 19.21076393127441 3.211085557937622 21.35197448730469 5.410165786743164 C 23.50723266601563 7.62367582321167 24.69418334960938 10.57050609588623 24.69418334960938 13.70782566070557 C 24.69418334960938 16.84514617919922 23.50723266601563 19.7919750213623 21.35197448730469 22.00548553466797 C 19.21076393127441 24.20456504821777 16.3679141998291 25.4156551361084 13.34709358215332 25.4156551361084 Z"/><path class="e" d="M 13.34709358215332 3.999996185302734 C 8.193094253540039 3.999996185302734 4.000003814697266 8.35490608215332 4.000003814697266 13.70782566070557 C 4.000003814697266 19.06074523925781 8.193094253540039 23.4156551361084 13.34709358215332 23.4156551361084 C 18.50109481811523 23.4156551361084 22.69418334960938 19.06074523925781 22.69418334960938 13.70782566070557 C 22.69418334960938 8.35490608215332 18.50109481811523 3.999996185302734 13.34709358215332 3.999996185302734 M 13.34709358215332 -3.814697265625e-06 C 20.71848297119141 -3.814697265625e-06 26.69418334960938 6.137205123901367 26.69418334960938 13.70782566070557 C 26.69418334960938 21.27844619750977 20.71848297119141 27.4156551361084 13.34709358215332 27.4156551361084 C 5.975692749023438 27.4156551361084 3.814697265625e-06 21.27844619750977 3.814697265625e-06 13.70782566070557 C 3.814697265625e-06 6.137205123901367 5.975692749023438 -3.814697265625e-06 13.34709358215332 -3.814697265625e-06 Z"/></g><path class="c" d="M997.667,539.667,1002,544l-4.329,4.329" transform="translate(-960.579 -498.372)"/></g></svg>