<svg xmlns="http://www.w3.org/2000/svg" width="11.704" height="11.056" viewBox="0 0 11.704 11.056"><defs><style>.a{opacity:0.3;}.b{fill:#fff;}</style></defs><g class="a"><g transform="translate(0 4.385)"><path class="b" d="M2.559,57v2.06H.8V57H2.559m.531-.8H.265A.263.263,0,0,0,0,56.465v6.14a.263.263,0,0,0,.265.265H3.09a.263.263,0,0,0,.265-.265v-6.14A.273.273,0,0,0,3.09,56.2Z" transform="translate(0 -56.2)"/></g><g transform="translate(4.151 2.785)"><path class="b" d="M55.759,36.5v4.135H54V36.5h1.763m.531-.8H53.465a.263.263,0,0,0-.265.265v7.74a.263.263,0,0,0,.265.265H56.29a.263.263,0,0,0,.265-.265v-7.74a.273.273,0,0,0-.265-.265Z" transform="translate(-53.2 -35.7)"/></g><g transform="translate(8.349)"><path class="b" d="M109.559.8V5.914H107.8V.8h1.763m.531-.8h-2.824A.263.263,0,0,0,107,.265V10.791a.263.263,0,0,0,.265.265h2.824a.263.263,0,0,0,.265-.265V.265A.263.263,0,0,0,110.09,0Z" transform="translate(-107)"/></g></g></svg>