<svg xmlns="http://www.w3.org/2000/svg" width="11.569" height="11.569" viewBox="0 0 11.569 11.569"><defs><style>.a{opacity:0.3;}.b{fill:#fff;}</style></defs><g class="a"><path class="b" d="M6.284.5a5.784,5.784,0,1,0,5.784,5.784A5.791,5.791,0,0,0,6.284.5Zm-5.2,5.784A5.168,5.168,0,0,1,1.7,3.839a.617.617,0,0,0,.215.07c.487.049.39.877.776,1.121a1.517,1.517,0,0,1,.539.569s.049,1.233.536,1.476A1.034,1.034,0,0,1,4.3,8.341,1.966,1.966,0,0,0,4.493,10c.341.438,1.267.389,1.072,0s-.487-.439-.383-.682.773-.633.919-1.023,1.168-.925,1.51-1.51-.731-.926-1.3-.877-.89-.341-1.378-.863-.682-.111-1.217-.013-.73-.341-.974-.925.439-.195.633-.837.633-.138,1.008-.04.6.048.745-.487S6.15,2.351,6.3,2.01s-.877.049-1.705-.341c-.136-.064-.2-.14-.214-.22A5.188,5.188,0,0,1,10.56,3.33c-.085.15-.191.259-.315.2-.309-.137-.233.3-.547.194s-.942-.052-1.1.419-.281.685.126,1.1.447.612.447.874.218.354.621.274.745-.2.733.157-.346.415-.084.676.613.633-.107.871-.787.523-.715.991-.229.619.246.965a5.2,5.2,0,0,1-8.78-3.765Z" transform="translate(-0.5 -0.5)"/></g></svg>